<svg xmlns="http://www.w3.org/2000/svg" xmlns:xlink="http://www.w3.org/1999/xlink" viewBox="0 0 464 306.92"><defs><style>.cls-1{fill:none;}.cls-2{clip-path:url(#clip-path);}.cls-3{fill:#151b38;}.cls-4{fill:#03ffff;}</style><clipPath id="clip-path" transform="translate(0 0)"><rect class="cls-1" width="464" height="306.92"/></clipPath></defs><title>i1</title><g id="Layer_2" data-name="Layer 2"><g id="Layer_1-2" data-name="Layer 1"><g class="cls-2"><path class="cls-3" d="M432,0H32A32,32,0,0,0,0,32V144a32,32,0,0,0,32,32h8V144H424v32h8a32,32,0,0,0,32-32V32A32,32,0,0,0,432,0" transform="translate(0 0)"/><polygon class="cls-3" points="40 144 40 160 40 176 80 176 80 144 40 144"/><rect class="cls-3" x="144" y="144" width="32" height="32"/><rect class="cls-3" x="192" y="144" width="32" height="32"/><rect class="cls-3" x="96" y="144" width="32" height="32"/><rect class="cls-3" x="240" y="144" width="32" height="32"/><polygon class="cls-3" points="384 144 384 176 424 176 424 160 424 144 384 144"/><rect class="cls-3" x="336" y="144" width="32" height="32"/><rect class="cls-3" x="288" y="144" width="32" height="32"/><rect class="cls-4" x="40" y="112" width="384" height="32"/><rect class="cls-4" x="408" y="72" width="16" height="16"/><rect class="cls-4" x="376" y="72" width="16" height="16"/><rect class="cls-4" x="208" y="72" width="48" height="16"/><path class="cls-4" d="M271.45,306.92l-14.9-5.84,5.74-14.64a25,25,0,0,0-4.59-25.5,40.72,40.72,0,0,1-6.89-41.21l5.74-14.65,14.9,5.84-5.74,14.64a25,25,0,0,0,4.59,25.5,40.72,40.72,0,0,1,6.89,41.21Z" transform="translate(0 0)"/><path class="cls-4" d="M335.45,306.92l-14.9-5.84,5.74-14.64a25,25,0,0,0-4.59-25.5,40.72,40.72,0,0,1-6.89-41.21l5.74-14.65,14.9,5.84-5.74,14.64a25,25,0,0,0,4.59,25.5,40.72,40.72,0,0,1,6.89,41.21Z" transform="translate(0 0)"/><path class="cls-4" d="M207.45,306.92l-14.9-5.84,5.74-14.64a25,25,0,0,0-4.59-25.5,40.72,40.72,0,0,1-6.89-41.21l5.74-14.65,14.9,5.84-5.74,14.64a25,25,0,0,0,4.59,25.5,40.72,40.72,0,0,1,6.89,41.21Z" transform="translate(0 0)"/><path class="cls-4" d="M143.45,306.92l-14.9-5.84,5.74-14.64a25,25,0,0,0-4.59-25.5,40.72,40.72,0,0,1-6.89-41.21l5.73-14.65,14.9,5.84-5.74,14.64a25,25,0,0,0,4.59,25.5,40.72,40.72,0,0,1,6.89,41.21Z" transform="translate(0 0)"/></g></g></g></svg>