<svg xmlns="http://www.w3.org/2000/svg" xmlns:xlink="http://www.w3.org/1999/xlink" viewBox="0 0 448 448"><defs><style>.cls-1{fill:none;}.cls-2{clip-path:url(#clip-path);}.cls-3{fill:#03ffff;}.cls-4{fill:#151b38;}</style><clipPath id="clip-path" transform="translate(0)"><rect class="cls-1" width="448" height="448"/></clipPath></defs><title>i2</title><g id="Layer_2" data-name="Layer 2"><g id="Layer_1-2" data-name="Layer 1"><g class="cls-2"><path class="cls-3" d="M199.73,298.73a55.48,55.48,0,0,0-1-6.55c-.17-.8-.39-1.53-.59-2.29a43.42,43.42,0,0,0-1.36-4.46c-.29-.8-.56-1.6-.88-2.4a54.49,54.49,0,0,0-2.75-5.86c-.37-.68-.8-1.33-1.21-2-.74-1.21-1.5-2.4-2.32-3.57-.56-.8-1.13-1.55-1.72-2.29-.85-1.08-1.75-2.11-2.67-3.11-.55-.6-1.07-1.23-1.64-1.81a57.75,57.75,0,0,0-4.5-4c-.62-.5-1.28-1-1.93-1.44-1.21-.89-2.4-1.73-3.69-2.51-.61-.38-1.21-.75-1.82-1.11a56.66,56.66,0,0,0-12.2-5.14c-.55-.15-1.1-.28-1.65-.42a48.61,48.61,0,0,0-5.13-1.05c-.6-.09-1.2-.2-1.81-.27A55.64,55.64,0,0,0,144,248a57.82,57.82,0,0,0-14.05,1.76A56,56,0,0,0,130,358.25a58.91,58.91,0,0,0,6.54,1.23l1,.11q2.82.32,5.66.35h1.67c1.32,0,2.62-.09,3.9-.2,1-.09,2-.21,3-.35l1.07-.17a57.8,57.8,0,0,0,14.59-4.41l.66-.32c1-.45,2-.94,2.95-1.46a56.12,56.12,0,0,0,28.11-39.2c.33-1.95.58-3.88.72-5.82,0-.66.07-1.32.09-2a54.76,54.76,0,0,0-.07-5.54c0-.59,0-1.18-.09-1.76" transform="translate(0)"/><path class="cls-4" d="M280,328a8,8,0,0,0,8-8V288a8,8,0,0,0-8-8h-8.8a24.07,24.07,0,0,1-22.4-15.49c-.85-2.22-1.77-4.43-2.75-6.6a24.07,24.07,0,0,1,4.8-26.85l6.27-6.27a8,8,0,0,0,0-11.31L234.5,190.87a8.05,8.05,0,0,0-11.32,0l-6.26,6.26a24.06,24.06,0,0,1-26.85,4.8q-3.25-1.48-6.61-2.75A24.08,24.08,0,0,1,168,176.8V168a8,8,0,0,0-8-8H128a8,8,0,0,0-8,8v8.8a24.06,24.06,0,0,1-15.49,22.4c-2.22.85-4.43,1.77-6.6,2.75a24,24,0,0,1-26.85-4.8l-6.27-6.27a8,8,0,0,0-11.31,0L30.87,213.48a8,8,0,0,0,0,11.32l6.26,6.26a24.07,24.07,0,0,1,4.8,26.85q-1.48,3.26-2.75,6.62A24.07,24.07,0,0,1,16.8,280H8a8,8,0,0,0-8,8v32a8,8,0,0,0,8,8h8.8a24.07,24.07,0,0,1,22.4,15.49c.85,2.22,1.77,4.43,2.75,6.6a24.07,24.07,0,0,1-4.8,26.85l-6.27,6.27a8,8,0,0,0,0,11.31L53.5,417.13a8,8,0,0,0,11.32,0l6.26-6.26a24.09,24.09,0,0,1,26.85-4.8q3.25,1.48,6.61,2.75A24.08,24.08,0,0,1,120,431.2V440a8,8,0,0,0,8,8h32a8,8,0,0,0,8-8v-8.8a24.07,24.07,0,0,1,15.49-22.4c2.22-.85,4.43-1.77,6.6-2.75a24,24,0,0,1,26.85,4.8l6.27,6.27a8,8,0,0,0,11.31,0l22.61-22.61a8,8,0,0,0,0-11.32l-6.26-6.26a24.08,24.08,0,0,1-4.8-26.85q1.48-3.25,2.75-6.61A24.08,24.08,0,0,1,271.2,328Zm-64.06-22.66c0,1.44-.11,2.88-.23,4.33-.12,1.6-.32,3.12-.54,4.66a85.37,85.37,0,0,1-12,32.86,25.29,25.29,0,0,1-4.29,5.25,94.89,94.89,0,0,1-20.5,14.81h0c-1.35.72-2.69,1.33-4,1.94-1,.48-2.07,1-3.12,1.41s-2.25.8-3.37,1.23-2.18.8-3.3,1.11c-1.44.42-2.84.8-4.25,1.09-.8.18-1.53.38-2.31.53-2,.4-4,.69-5.92.91-.25,0-.51.08-.8.1-2.4.24-4.8.39-7.06.39-1.3,0-2.46-.18-3.7-.25-1.87-.09-3.74-.13-5.6-.37a76.49,76.49,0,0,1-8.38-1.6,1.76,1.76,0,0,1-.4-.07A72,72,0,0,1,126,234.18a73.55,73.55,0,0,1,7.75-1.45c.9-.12,1.81-.23,2.72-.33,1.72-.18,3.43-.27,5.14-.32.8,0,1.6-.15,2.4-.15a71.46,71.46,0,0,1,42.89,14.3l1.31,1c1,.8,2,1.61,3,2.45.8.7,1.6,1.44,2.4,2.18s1.31,1.23,1.94,1.88c1.19,1.21,2.33,2.47,3.43,3.78.24.28.5.55.73.84a71,71,0,0,1,7.2,10.49c.11.18.17.38.27.57a70.76,70.76,0,0,1,3.53,7.49c.45,1.1.8,2.2,1.21,3.31q.84,2.4,1.51,4.87c.35,1.3.72,2.59,1,3.89.43,2,.73,4,1,6.07.24,1.91.37,3.82.45,5.74,0,1.05.16,2.09.16,3.2,0,.5-.05.93-.06,1.38" transform="translate(0)"/><path class="cls-3" d="M440,168H414.84a23.8,23.8,0,0,1-22.63-16.17,151.13,151.13,0,0,0-8.15-19.61,23.82,23.82,0,0,1,4.51-27.49l17.84-17.87a8,8,0,0,0,0-11.3l-34-34a8,8,0,0,0-11.31,0L343.27,59.44A23.85,23.85,0,0,1,315.79,64a150.35,150.35,0,0,0-19.62-8.16A23.8,23.8,0,0,1,280,33.16V8a8,8,0,0,0-8-8H224a8,8,0,0,0-8,8V33.16a23.8,23.8,0,0,1-16.17,22.63,151.13,151.13,0,0,0-19.61,8.15,23.79,23.79,0,0,1-27.49-4.51L134.86,41.6a8,8,0,0,0-11.31,0L89.6,75.55a8,8,0,0,0,0,11.31L146.67,144h13.76a104.15,104.15,0,0,1,14-17.6,102.5,102.5,0,0,1,7.63-6.9c1-.85,2.13-1.6,3.2-2.4,1.66-1.27,3.31-2.55,5-3.71,1.17-.8,2.4-1.44,3.56-2.16,1.75-1.06,3.46-2.15,5.27-3.11,1-.55,2.11-1,3.2-1.53,2-1,4.07-2,6.17-2.86.8-.32,1.6-.57,2.35-.86,2.4-.93,4.87-1.82,7.37-2.57.41-.12.8-.2,1.22-.32a102.4,102.4,0,0,1,57.12,0c.41.12.8.2,1.22.32,2.5.74,4.95,1.64,7.37,2.57.8.3,1.6.54,2.35.86,2.1.87,4.14,1.86,6.17,2.86,1.06.52,2.13,1,3.2,1.53,1.81,1,3.52,2,5.26,3.1,1.19.73,2.4,1.39,3.57,2.17,1.74,1.16,3.38,2.4,5,3.7,1.06.8,2.16,1.54,3.2,2.4A103.14,103.14,0,0,1,328.51,134c.85,1,1.6,2.14,2.4,3.2,1.26,1.66,2.54,3.3,3.7,5,.8,1.17,1.44,2.4,2.17,3.57,1.06,1.73,2.15,3.45,3.1,5.26.55,1,1,2.11,1.53,3.2,1,2,2,4.06,2.86,6.17.32.8.57,1.6.86,2.35.93,2.4,1.82,4.86,2.57,7.37.12.41.2.8.32,1.22a102.4,102.4,0,0,1,0,57.12c-.12.41-.2.8-.32,1.22-.74,2.5-1.6,4.95-2.57,7.37-.3.8-.54,1.6-.86,2.35-.87,2.1-1.86,4.14-2.86,6.17-.52,1.05-1,2.13-1.53,3.2-1,1.81-2,3.53-3.11,5.27-.72,1.18-1.39,2.4-2.16,3.56-1.16,1.73-2.4,3.38-3.71,5-.8,1.06-1.54,2.15-2.4,3.2a102.31,102.31,0,0,1-6.9,7.63,104.15,104.15,0,0,1-17.6,14c0,.15,0,.29,0,.43v13.33l57.1,57.07a8,8,0,0,0,11.3,0l34-33.95a8,8,0,0,0,0-11.31l-17.84-17.87A23.82,23.82,0,0,1,384,267.79a150.35,150.35,0,0,0,8.16-19.62A23.8,23.8,0,0,1,414.84,232H440a8,8,0,0,0,8-8V176a8,8,0,0,0-8-8" transform="translate(0)"/></g></g></g></svg>