<svg xmlns="http://www.w3.org/2000/svg" viewBox="0 0 600.28 600.32"><defs><style>.cls-1{fill:#151b38;}.cls-2{fill:#03ffff;}</style></defs><title>i3</title><g id="Layer_2" data-name="Layer 2"><g id="Layer_1-2" data-name="Layer 1"><g id="surface1"><path class="cls-1" d="M588.71,486.66a74.16,74.16,0,0,0-9.82-12.3L455.7,351.17l-5.16,5.16a21.91,21.91,0,0,1-31-31l5.16-5.16-31-31L290.46,392.48l31,31,5.17-5.17a21.91,21.91,0,0,1,31,31l-5.17,5.16L475.62,577.63a73,73,0,0,0,113.09-91Z"/><path class="cls-2" d="M125.23,82.66,114.91,41.36,42.62.05,1.31,41.36l41.31,72.29L83.93,124,321.44,361.5l41.31-41.31Z"/><path class="cls-2" d="M596.78,86.16,528,155,466,134.3l-20.65-62,68.8-68.8A113.12,113.12,0,0,0,376.59,141.11L142.38,375.33A114.24,114.24,0,1,0,225,457.95L459.21,223.73A113.17,113.17,0,0,0,596.78,86.16ZM145.89,537.06h-62l-31-51.64,31-51.63h62l31,51.63Z"/><path class="cls-1" d="M179.87,405.82,407.06,178.63l14.6,14.6L194.47,420.42Z"/><path class="cls-2" d="M407.07,420.43l14.6-14.6L524.94,509.1l-14.6,14.6Z"/></g></g></g></svg>