<?xml version="1.0" encoding="utf-8"?>
<!-- Generator: Adobe Illustrator 22.0.0, SVG Export Plug-In . SVG Version: 6.00 Build 0)  -->
<svg version="1.1" id="Capa_1" xmlns="http://www.w3.org/2000/svg" xmlns:xlink="http://www.w3.org/1999/xlink" x="0px" y="0px"
	 viewBox="0 0 498.8 498.8" style="enable-background:new 0 0 498.8 498.8;" xml:space="preserve">
<style type="text/css">
	.st0{fill:#03FFFF;}
	.st1{fill:#151B38;}
</style>
<g>
	<path class="st0" d="M216.4,148.6v-43.1l-18.4-4.9c-0.5-1.4-1.1-2.8-1.8-4.3l9.6-16.5l-30.4-30.4L158.8,59
		c-1.4-0.6-2.8-1.2-4.3-1.8l-4.9-18.4h-43.1l-4.9,18.4c-1.4,0.5-2.8,1.1-4.3,1.8l-16.5-9.6L50.4,79.8L60,96.4
		c-0.6,1.4-1.2,2.8-1.8,4.3l-18.4,4.9v43.1l18.4,4.9c0.5,1.4,1.1,2.8,1.8,4.3l-9.6,16.5l30.4,30.4l16.5-9.6c1.4,0.6,2.8,1.2,4.3,1.8
		l4.9,18.4h43.1l4.9-18.4c1.4-0.5,2.8-1.1,4.3-1.8l16.5,9.6l30.4-30.4l-9.6-16.5c0.6-1.4,1.2-2.8,1.8-4.3L216.4,148.6z M128.1,167.8
		c-22.5,0-40.8-18.2-40.8-40.8s18.2-40.8,40.8-40.8s40.8,18.2,40.8,40.8S150.6,167.8,128.1,167.8z"/>
	<rect x="39.8" y="249.4" class="st0" width="176.6" height="54.4"/>
	<path class="st1" d="M128.1,174.6c10.6,0,20.6-3.4,29-9.9l-8.3-10.8c-6,4.6-13.1,7-20.7,7c-18.7,0-34-15.2-34-34s15.2-34,34-34
		s34,15.2,34,34c0,7.4-2.3,14.4-6.7,20.3l10.9,8.1c6.1-8.2,9.4-18.1,9.4-28.4c0-26.2-21.3-47.6-47.6-47.6s-47.6,21.3-47.6,47.6
		S101.9,174.6,128.1,174.6z"/>
	<path class="st1" d="M427,106.7v24.4l-8.8-8.8l-9.6,9.6l25.2,25.2l25.2-25.2l-9.6-9.6l-8.8,8.8v-24.4c0-37.5-30.5-67.9-67.9-67.9
		h-40.8v13.6h40.8C402.6,52.3,427,76.7,427,106.7z"/>
	<path class="st0" d="M73.7,392.1v-24.4l8.8,8.8l9.6-9.6l-25.2-25.2l-25.2,25.2l9.6,9.6l8.8-8.8v24.4c0,37.5,30.5,67.9,67.9,67.9
		v-13.6C98.1,446.4,73.7,422,73.7,392.1z"/>
	<rect x="39.8" y="242.6" class="st1" width="176.6" height="13.6"/>
	<rect x="39.8" y="296.9" class="st1" width="176.6" height="13.6"/>
	<rect x="39.8" y="269.8" class="st1" width="81.5" height="13.6"/>
	<polygon class="st1" points="134.9,269.8 134.9,283.3 141.7,283.3 173.9,283.3 216.4,283.3 216.4,269.8 173.9,269.8 141.7,269.8 	
		"/>
	<rect x="304.7" y="38.8" class="st1" width="13.6" height="13.6"/>
	<rect x="277.5" y="38.8" class="st1" width="13.6" height="13.6"/>
	<rect x="141.7" y="446.4" class="st0" width="13.6" height="13.6"/>
	<rect x="168.8" y="446.4" class="st0" width="13.6" height="13.6"/>
	<g>
		<path class="st1" d="M331.9,310.9c31,0,56.1-30.5,56.1-68.1c0-37.6-8.2-68.1-56.1-68.1s-56.1,30.5-56.1,68.1
			C275.8,280.4,300.9,310.9,331.9,310.9z"/>
		<path class="st1" d="M226,414.9C226,412.6,226,414.2,226,414.9L226,414.9z"/>
		<path class="st1" d="M437.8,416.7C437.8,416.1,437.8,412.3,437.8,416.7L437.8,416.7z"/>
		<path class="st1" d="M437.7,412.1c-1-65.5-9.6-84.2-75.1-96c0,0-9.2,11.7-30.7,11.7s-30.7-11.7-30.7-11.7
			c-64.8,11.7-73.8,30.1-75,93.9c-0.1,5.2-0.1,5.5-0.2,4.9c0,1.1,0,3.2,0,6.9c0,0,15.6,31.4,105.9,31.4
			c90.3,0,105.9-31.4,105.9-31.4c0-2.3,0-4,0-5.1C437.8,417.1,437.7,416.3,437.7,412.1z"/>
	</g>
</g>
</svg>
